<?xml version="1.0" encoding="UTF-8"?>
<svg xmlns="http://www.w3.org/2000/svg" viewBox="0 0 300 280">
  <defs>
    <style>
      .cls-1 {
        fill: #3a5669;
      }

      .cls-1, .cls-2 {
        stroke-width: 0px;
      }

      .cls-2 {
        fill: #0e0e16;
      }
    </style>
  </defs>
  <g id="Layer_1" data-name="Layer 1">
    <rect class="cls-1" width="300" height="280" rx="29.73" ry="29.73"/>
  </g>
  <g id="Layer_2" data-name="Layer 2">
    <g>
      <path class="cls-2" d="m90.9,62.67l140.6,124.98c6.4,5.69,7.34,15.94,2.12,22.89l-3.72,4.95c-5.23,6.96-14.65,7.99-21.05,2.3L68.25,92.82c-6.4-5.69-7.34-15.94-2.12-22.89l3.72-4.95c5.23-6.96,14.65-7.99,21.05-2.3Z"/>
      <path class="cls-2" d="m208.83,62.7l-140.6,124.98c-6.4,5.69-7.34,15.94-2.12,22.89l3.72,4.95c5.23,6.96,14.65,7.99,21.05,2.3l140.6-124.98c6.4-5.69,7.34-15.94,2.12-22.89l-3.72-4.95c-5.23-6.96-14.65-7.99-21.05-2.3Z"/>
    </g>
  </g>
</svg>